<svg width="80" height="70" viewBox="0 0 80 70" fill="none" xmlns="http://www.w3.org/2000/svg">
<path d="M1.08997 17.58V15.35C1.08996 15.1311 1.13324 14.9145 1.21729 14.7124C1.30133 14.5104 1.42451 14.3269 1.57971 14.1726C1.73492 14.0184 1.91915 13.8963 2.1217 13.8135C2.32426 13.7306 2.54118 13.6887 2.76001 13.69H7.39001C8.13324 13.6895 8.8692 13.8359 9.55566 14.1208C10.2421 14.4056 10.8655 14.8234 11.39 15.35L16 20H51.33" stroke="var(--color-foreground)" stroke-width="1.6" stroke-linecap="round" stroke-linejoin="round"/>
<path d="M66.25 17.58V15.35C66.25 15.1311 66.2067 14.9145 66.1227 14.7124C66.0386 14.5104 65.9155 14.3269 65.7603 14.1726C65.605 14.0184 65.4209 13.8963 65.2184 13.8135C65.0158 13.7306 64.7988 13.6887 64.58 13.69H60C58.4995 13.6923 57.0612 14.2892 56 15.35L51.4 19.95" stroke="var(--color-foreground)" stroke-width="1.6" stroke-linecap="round" stroke-linejoin="round"/>
<path d="M55.35 10.28L52.71 4.13001C52.2996 3.16507 51.6142 2.3423 50.7393 1.76435C49.8643 1.18639 48.8386 0.878832 47.79 0.880008H19.79C18.7417 0.88013 17.7165 1.18823 16.8418 1.76603C15.9671 2.34382 15.2815 3.16584 14.87 4.13001L12.2 10.37" stroke="var(--color-foreground)" stroke-width="1.6" stroke-linecap="round" stroke-linejoin="round"/>
<path d="M33.21 43.82H4.21002C3.59379 43.82 3.00265 43.5759 2.56597 43.1411C2.1293 42.7063 1.8827 42.1162 1.88006 41.5V30.41C1.87293 28.1032 2.57074 25.8493 3.88006 23.95L5.88006 21.06" stroke="var(--color-foreground)" stroke-width="1.6" stroke-linecap="round" stroke-linejoin="round"/>
<path d="M9.06995 28.79H15.86" stroke="var(--color-foreground)" stroke-width="1.6" stroke-linecap="round" stroke-linejoin="round"/>
<path d="M19.42 47.15V52.51C19.42 53.0404 19.2093 53.5491 18.8342 53.9242C18.4592 54.2993 17.9505 54.51 17.42 54.51H8.18994C7.65951 54.51 7.15083 54.2993 6.77576 53.9242C6.40068 53.5491 6.18994 53.0404 6.18994 52.51V47.15" stroke="var(--color-foreground)" stroke-width="1.6" stroke-linejoin="round"/>
<path d="M22.23 37.01V28.79H33.21" stroke="var(--color-foreground)" stroke-width="1.6" stroke-linecap="round" stroke-linejoin="round"/>
<path d="M78.9301 50.59V28.79C70.9301 28.79 63.93 26.79 60.29 22.05C56.69 26.79 49.7 28.79 41.66 28.79V50.59C41.6591 52.4608 42.1238 54.3024 43.0125 55.9487C43.9011 57.595 45.1856 58.9942 46.75 60.02L60.29 68.91L73.83 60.02C75.3962 58.9953 76.6827 57.5966 77.5731 55.9503C78.4635 54.3039 78.9299 52.4617 78.9301 50.59Z" fill="currentColor" stroke="var(--color-foreground)" stroke-width="1.6" stroke-linecap="round" stroke-linejoin="round"/>
<path d="M71.98 36.98L59.55 53.58L50.98 43.82" stroke="white" stroke-width="1.6" stroke-linecap="round" stroke-linejoin="round"/>
<path d="M33.21 43.82H37.66" stroke="var(--color-foreground)" stroke-width="1.6" stroke-linejoin="round"/>
<path d="M33.21 28.79H37.66" stroke="var(--color-foreground)" stroke-width="1.6" stroke-linejoin="round"/>
</svg>
